<svg xmlns="http://www.w3.org/2000/svg" viewBox="0 0 64 64" fill="none">
  <!-- Shield body -->
  <path d="M32 4 L58 18 L58 36 C58 50 46 59 32 62 C18 59 6 50 6 36 L6 18 Z" fill="#8B1A1A" stroke="#6B0F0F" stroke-width="1.5"/>
  <!-- Inner shield -->
  <path d="M32 10 L52 22 L52 36 C52 47 42 54 32 57 C22 54 12 47 12 36 L12 22 Z" fill="#A02020"/>
  <!-- Gold border -->
  <path d="M32 14 L48 24 L48 36 C48 44 40 50 32 53 C24 50 16 44 16 36 L16 24 Z" fill="none" stroke="#FFD700" stroke-width="1.5"/>
  <!-- Star -->
  <polygon points="32,19 35,27 44,27 37,32 39,40 32,35 25,40 27,32 20,27 29,27" fill="#FFD700" stroke="#D4A500" stroke-width="0.5"/>
  <!-- Inner circle -->
  <circle cx="32" cy="30" r="5" fill="#8B1A1A" stroke="#FFD700" stroke-width="1"/>
  <!-- S -->
  <text x="32" y="33" text-anchor="middle" font-family="Georgia, serif" font-size="7" font-weight="bold" fill="#FFD700">S</text>
</svg>
